<svg xmlns="http://www.w3.org/2000/svg" version="1.0" width="300" height="300" viewBox="0 0 297.598 567.188" id="svg2" xml:space="preserve"><defs id="defs4"><style type="text/css" id="style6"/></defs><g id="g3001" transform="translate(230.46 6.496)" fill="#00546b"><path d="M156.083 428.631c-30.718-.766-54.525 2.308-74.493 10.754-5.76 2.302-14.976 2.305-15.745 9.599 3.074 3.074 3.457 8.065 6.145 12.288 4.611 7.677 12.671 18.047 19.968 23.424 8.063 6.143 16.128 12.285 24.573 17.662 14.976 9.217 31.872 14.59 46.463 23.807 8.45 5.372 16.894 12.288 25.342 18.048 4.225 3.069 6.911 8.062 12.288 9.982v-1.151c-2.689-3.457-3.457-8.448-6.143-12.288-3.837-3.84-7.68-7.296-11.52-11.136-11.136-14.974-24.958-28.03-39.934-38.781-12.285-8.448-39.166-19.968-44.158-34.175l-.768-.766c8.448-.769 18.43-3.84 26.495-6.146 13.057-3.456 24.96-2.688 38.398-6.142 6.143-1.537 12.288-3.457 18.43-5.377v-3.454c-6.908-6.914-11.902-16.128-19.198-22.656-19.582-16.899-41.087-33.407-63.357-47.23-11.905-7.679-27.264-12.673-39.935-19.198-4.605-2.308-12.288-3.457-14.973-7.297-6.914-8.448-10.754-19.582-15.745-29.567-11.132-21.121-21.887-44.54-31.487-66.81-6.909-14.977-11.134-29.953-19.582-43.775-39.55-65.277-82.556-104.827-148.6-143.61-14.208-8.063-31.102-11.52-49.15-15.742-9.596-.386-19.198-1.152-28.798-1.537-6.143-2.688-12.288-9.983-17.665-13.44-21.882-13.824-78.33-43.772-94.458-4.222-10.368 24.959 15.36 49.532 24.19 62.205 6.531 8.831 14.977 18.814 19.585 28.799 2.688 6.523 3.454 13.439 6.143 20.35 6.145 16.891 11.902 35.71 19.967 51.454 4.225 8.063 8.831 16.511 14.208 23.805 3.071 4.223 8.445 6.145 9.6 13.056-5.375 7.68-5.76 19.2-8.834 28.799-13.822 43.39-8.446 97.146 11.136 129.016 6.143 9.597 20.736 30.721 40.318 22.656 17.28-6.911 13.44-28.799 18.43-47.998 1.155-4.61.386-7.68 2.69-10.75v.768c5.376 10.75 10.75 21.119 15.741 31.87 11.905 18.813 32.639 38.398 49.918 51.454 9.219 6.909 16.513 18.814 28.032 23.039v-1.154h-.768c-2.306-3.457-5.76-4.991-8.831-7.68-6.912-6.91-14.594-15.359-19.968-23.038-16.125-21.505-30.335-45.31-43.006-69.885-6.143-11.903-11.52-24.959-16.51-36.861-2.306-4.611-2.306-11.52-6.146-13.823-5.76 8.446-14.205 15.743-18.43 26.11-7.292 16.511-8.063 36.862-10.751 57.98-1.535.386-.769 0-1.537.769-12.286-3.074-16.51-15.742-21.12-26.496-11.519-27.261-13.438-71.036-3.454-102.52 2.689-8.065 14.208-33.407 9.6-41.087-2.303-7.296-9.985-11.519-14.208-17.279-4.991-7.296-10.368-16.51-13.822-24.575-9.217-21.502-13.825-45.31-23.807-66.814-4.608-9.985-12.671-20.35-19.2-29.564-7.293-10.368-15.358-17.665-21.118-29.953-1.918-4.223-4.608-11.134-1.537-15.742.768-3.071 2.303-4.223 5.377-4.991 4.99-4.226 19.199 1.151 24.19 3.454 14.207 5.757 26.11 11.136 38.015 19.2 5.374 3.839 11.134 11.135 18.045 13.055h8.065c12.288 2.686 26.11.769 37.63 4.223 20.352 6.526 38.78 16.128 55.294 26.496 50.302 31.87 91.77 77.181 119.802 131.321 4.608 8.83 6.526 16.897 10.75 26.11 8.066 18.817 18.048 38.016 26.11 56.446 8.064 18.045 15.743 36.478 27.262 51.454 5.763 8.06 28.799 12.286 39.167 16.511 7.68 3.455 19.584 6.528 26.495 10.751 13.054 8.06 26.11 17.28 38.398 26.11 6.146 4.606 25.342 14.208 26.496 21.885z" id="path16"/><path d="M-235.58 94.951c-6.529 0-11.135.771-15.743 1.923v.768h.769c3.073 6.143 8.445 10.368 12.285 15.742 3.074 6.143 5.76 12.288 8.834 18.433l.766-.768c5.379-3.842 8.065-9.985 8.065-19.199-2.306-2.688-2.689-5.377-4.609-8.065-2.303-3.842-7.296-5.76-10.368-8.834z" id="path18"/></g></svg>