<svg xmlns="http://www.w3.org/2000/svg" version="1" width="300" height="300" viewBox="0 0 297.59815 567.18777" id="svg2"><defs id="defs4"><style id="style6"/></defs><g id="g3001" fill="#00546b"><path d="M386.543 435.127c-30.718-.766-54.525 2.308-74.493 10.754-5.76 2.304-14.976 2.306-15.745 9.6 3.074 3.074 3.457 8.065 6.146 12.288 4.61 7.677 12.67 18.048 19.968 23.424 8.063 6.143 16.128 12.286 24.573 17.662 14.978 9.217 31.874 14.59 46.464 23.808 8.45 5.37 16.894 12.287 25.342 18.047 4.225 3.068 6.91 8.062 12.288 9.982v-1.152c-2.688-3.457-3.457-8.448-6.143-12.288-3.836-3.84-7.678-7.296-11.518-11.136-11.137-14.974-24.96-28.03-39.935-38.78-12.285-8.45-39.166-19.968-44.158-34.176l-.77-.766c8.45-.77 18.43-3.84 26.496-6.145 13.057-3.458 24.96-2.69 38.398-6.144 6.143-1.537 12.288-3.457 18.43-5.377v-3.455c-6.908-6.914-11.9-16.128-19.198-22.656-19.582-16.9-41.086-33.408-63.357-47.23-11.906-7.68-27.265-12.673-39.936-19.2-4.605-2.307-12.287-3.456-14.973-7.296-6.913-8.448-10.753-19.582-15.744-29.567-11.13-21.12-21.887-44.54-31.487-66.81-6.91-14.977-11.135-29.953-19.583-43.775-39.55-65.277-82.555-104.826-148.6-143.61C44.8 53.07 27.905 49.612 9.857 45.39.262 45.005-9.34 44.24-18.94 43.853c-6.144-2.688-12.29-9.982-17.665-13.44-21.883-13.824-78.33-43.77-94.458-4.222-10.368 24.96 15.36 49.533 24.19 62.206 6.53 8.83 14.976 18.814 19.584 28.8 2.69 6.522 3.456 13.438 6.144 20.35C-75 154.435-69.244 173.255-61.18 189c4.227 8.062 8.832 16.51 14.21 23.804 3.07 4.223 8.445 6.145 9.6 13.057-5.376 7.68-5.76 19.2-8.835 28.8-13.822 43.388-8.446 97.146 11.136 129.015 6.144 9.597 20.737 30.72 40.32 22.656 17.278-6.91 13.44-28.797 18.43-47.996 1.154-4.61.385-7.68 2.688-10.75.002.382 0 .767 0 .767 5.377 10.752 10.75 21.12 15.742 31.87 11.905 18.814 32.64 38.4 49.918 51.455 9.22 6.91 16.513 18.814 28.032 23.04v-1.155h-.768c-2.306-3.457-5.76-4.99-8.83-7.68-6.912-6.91-14.594-15.36-19.97-23.038-16.124-21.505-30.334-45.31-43.005-69.885-6.143-11.902-11.52-24.96-16.51-36.86-2.306-4.612-2.306-11.52-6.146-13.823-5.758 8.445-14.204 15.742-18.43 26.11-7.29 16.51-8.062 36.86-10.75 57.98-1.535.385-.77 0-1.537.768-12.285-3.074-16.51-15.742-21.12-26.495-11.518-27.262-13.438-71.037-3.453-102.52 2.688-8.066 14.207-33.408 9.6-41.087-2.304-7.297-9.986-11.52-14.21-17.28-4.99-7.296-10.367-16.51-13.82-24.575-9.217-21.502-13.826-45.31-23.808-66.814-4.608-9.984-12.67-20.35-19.2-29.563-7.293-10.368-15.358-17.665-21.118-29.953-1.918-4.222-4.608-11.134-1.537-15.742.77-3.07 2.303-4.223 5.377-4.99 4.99-4.226 19.2 1.15 24.19 3.453 14.208 5.758 26.11 11.137 38.015 19.2 5.373 3.84 11.133 11.136 18.044 13.056h8.065c12.287 2.686 26.11.77 37.63 4.223C37.12 74.57 55.55 84.17 72.062 94.54c50.303 31.87 91.77 77.18 119.802 131.32 4.608 8.83 6.526 16.897 10.75 26.11 8.066 18.817 18.048 38.016 26.11 56.446 8.064 18.045 15.743 36.478 27.263 51.455 5.762 8.06 28.798 12.286 39.166 16.51 7.68 3.456 19.584 6.53 26.496 10.752 13.053 8.06 26.11 17.28 38.398 26.11 6.145 4.606 25.34 14.208 26.495 21.885z" id="path16"/><path d="M-5.12 101.448c-6.53 0-11.134.77-15.743 1.922v.768h.77c3.073 6.143 8.444 10.368 12.284 15.743 3.075 6.143 5.76 12.29 8.835 18.434l.766-.77c5.38-3.84 8.066-9.984 8.066-19.198-2.306-2.688-2.69-5.376-4.608-8.065-2.303-3.84-7.297-5.76-10.368-8.832z" id="path18"/></g></svg>