<svg xmlns="http://www.w3.org/2000/svg" xmlns:xlink="http://www.w3.org/1999/xlink" width="300" height="159" viewBox="0 0 300 160"><defs><linearGradient x1="150" y1="84" x2="299" y2="84" id="a" gradientUnits="userSpaceOnUse"><stop offset="0" stop-color="#dddce9"/><stop offset=".37" stop-color="#5664a3"/><stop offset="1"/></linearGradient><radialGradient cx="77.914" cy="-48.545" r="146" fx="77.914" fy="-48.545" id="b" xlink:href="#a" gradientUnits="userSpaceOnUse" gradientTransform="matrix(1.5 0 0 1.36 -39.03 76.96)"/></defs><ellipse cx="150" cy="80" rx="146" ry="76" fill="#6c7eb7" stroke="url(#b)" stroke-width="5.5"/><path d="M45 125l16-81h37c16 1 24 9 24 23 0 24-19 38-36 37H68l-4 21H45zm27-36l5-30h13c7 0 12 3 12 9-1 17-9 20-18 21H72z" id="c" fill-rule="evenodd" stroke="#fff" stroke-width="2" stroke-linejoin="round"/><path d="M116 104l16-81h19l-4 21h18c16 1 22 9 20 19l-7 41h-20l7-37c1-5 1-8-6-8h-15l-9 45h-19z" stroke="#fff" stroke-width="2" stroke-linejoin="round"/><use transform="translate(134)" xlink:href="#c"/></svg>