<svg xmlns="http://www.w3.org/2000/svg" height="155.8" viewBox="0 0 467.35715 155.79802" width="467.36"><g transform="translate(-166.33 -222.11)"><path fill="#636466" d="M421.64 272.27c0 3.62-2.973 6.85-6.85 6.85-2.973 0-5.557.775-7.754 2.455-2.455 1.552-4.394 3.748-5.944 6.203-3.102 4.136-4.65 9.046-5.298 10.854v24.554c0 3.748-3.23 6.85-7.107 6.85-3.748 0-6.85-3.102-6.85-6.85V272.27c0-3.748 3.102-6.72 6.85-6.72 3.877 0 7.107 2.973 7.107 6.72v.905c.775-.905 1.81-1.938 2.714-2.585 4.265-2.842 9.82-5.17 16.282-5.04 3.877 0 6.85 2.973 6.85 6.72zM417.85 297.73c.13-17.575 13.828-32.307 31.53-32.307 16.8 0 30.11 12.535 31.146 29.98v.646c0 .258 0 .903-.13 1.162-.388 3.102-3.1 5.17-6.72 5.17h-41.094c.646 2.973 2.067 6.332 4.394 8.53 2.714 3.1 7.883 5.425 12.405 5.813 4.653.387 10.21-.775 13.44-3.23 2.714-2.844 8.013-2.455 9.693-.39 1.68 1.812 2.972 5.69 0 8.4-6.333 5.815-13.957 8.53-23.133 8.53-17.702-.127-31.4-14.73-31.53-32.305zm14.086-6.332h36.57c-1.29-5.17-7.882-12.793-19.125-13.698-10.982.516-16.41 8.4-17.444 13.698zM546.36 323.06c0 3.748-3.102 6.98-6.98 6.98-3.488 0-6.2-2.456-6.848-5.558-4.91 3.36-11.113 5.557-17.575 5.557-17.445 0-31.402-14.733-31.402-32.18 0-17.704 13.957-32.436 31.402-32.436 6.333 0 12.535 2.067 17.316 5.427v-24.293c0-3.748 3.102-6.98 7.107-6.98 3.877 0 6.98 3.232 6.98 6.98v76.504zm-31.402-43.55c-4.652 0-8.917 1.938-12.146 5.298-3.23 3.23-5.17 7.882-5.17 13.052 0 4.91 1.938 9.562 5.17 12.793 3.23 3.36 7.494 5.3 12.146 5.3 4.78 0 8.917-1.94 12.147-5.3 3.23-3.23 5.17-7.883 5.17-12.793 0-5.17-1.94-9.82-5.17-13.052-3.23-3.36-7.366-5.298-12.147-5.298zM570.95 249.27c0 3.877-2.972 7.107-6.98 7.107-3.876 0-6.977-3.23-6.977-7.107v-2.714c0-3.877 3.1-6.98 6.978-6.98 4.008 0 6.98 3.103 6.98 6.98v2.714zm0 23.39v50.4c0 3.876-2.972 6.978-6.98 6.978-3.876 0-6.977-3.102-6.977-6.98V272.66c0-4.135 3.1-7.108 6.978-7.108 4.01 0 6.98 2.973 6.98 7.108zM579.83 311.55c2.326-3.1 6.85-3.488 9.692-1.033 3.36 2.844 9.176 5.814 14.215 5.686 3.49 0 6.72-1.162 8.788-2.455 1.81-1.55 2.325-2.842 2.325-3.877 0-.645-.13-.903-.387-1.292-.13-.387-.646-.904-1.68-1.55-1.81-1.292-5.687-2.714-10.34-3.618h-.128c-4.007-.775-7.884-1.81-11.243-3.36-3.49-1.68-6.59-4.006-8.917-7.495-1.42-2.326-2.196-5.17-2.196-8.14 0-5.946 3.36-10.986 7.623-14.217 4.523-3.1 9.95-4.78 15.896-4.78 8.915 0 15.247 4.264 19.383 7.106 3.102 2.068 4.006 6.333 2.067 9.562-2.067 3.102-6.332 4.007-9.562 1.81-4.135-2.713-7.754-4.782-11.89-4.782-3.23 0-6.073 1.034-7.753 2.326-1.68 1.164-2.067 2.327-2.067 2.973 0 .516 0 .646.258 1.033.13.258.517.775 1.422 1.292 1.68 1.163 5.04 2.326 9.434 3.102l.13.13h.13c4.264.774 8.27 1.938 12.017 3.747 3.488 1.55 6.978 4.006 9.175 7.624 1.55 2.585 2.455 5.558 2.455 8.53 0 6.332-3.49 11.63-8.142 14.99-4.652 3.23-10.468 5.17-16.8 5.17-10.08-.13-17.833-4.78-23.002-8.916-2.844-2.326-3.23-6.72-.906-9.564z"/><path fill="#a41e11" d="M334.77 339.54c-9.078 4.732-56.106 24.068-66.118 29.287-10.012 5.22-15.574 5.17-23.483 1.39s-57.956-23.997-66.97-28.306c-4.507-2.153-6.876-3.97-6.876-5.687v-17.195s65.153-14.184 75.672-17.957c10.518-3.773 14.167-3.91 23.118-.63 8.952 3.28 62.474 12.936 71.32 16.176l-.003 16.95c.002 1.7-2.04 3.566-6.66 5.974z"/><path fill="#d82c20" d="M334.77 322.34c-9.078 4.73-56.106 24.068-66.118 29.287-10.012 5.22-15.574 5.17-23.483 1.39-7.91-3.78-57.956-24-66.97-28.306-9.016-4.308-9.205-7.274-.35-10.74 8.856-3.47 58.627-22.997 69.147-26.77 10.518-3.773 14.167-3.91 23.118-.63 8.952 3.278 55.7 21.885 64.545 25.125 8.848 3.243 9.188 5.913.11 10.645z"/><path fill="#a41e11" d="M334.77 311.5c-9.078 4.732-56.106 24.068-66.118 29.29-10.012 5.218-15.574 5.167-23.483 1.386-7.91-3.78-57.956-23.996-66.97-28.305-4.507-2.153-6.876-3.968-6.876-5.685v-17.197s65.153-14.183 75.672-17.957c10.518-3.772 14.167-3.91 23.118-.63 8.952 3.28 62.474 12.934 71.32 16.175l-.003 16.953c.002 1.7-2.04 3.564-6.66 5.972z"/><path fill="#d82c20" d="M334.77 294.3c-9.078 4.732-56.106 24.068-66.118 29.29-10.012 5.218-15.574 5.167-23.483 1.386-7.91-3.78-57.956-23.997-66.97-28.305s-9.205-7.273-.35-10.742c8.856-3.467 58.627-22.995 69.147-26.768 10.518-3.773 14.167-3.91 23.118-.63 8.952 3.278 55.7 21.884 64.545 25.125 8.848 3.242 9.188 5.913.11 10.645z"/><path fill="#a41e11" d="M334.77 282.42c-9.078 4.732-56.106 24.07-66.118 29.29-10.012 5.22-15.574 5.168-23.483 1.387-7.91-3.78-57.956-23.997-66.97-28.305-4.507-2.154-6.876-3.97-6.876-5.686V261.91s65.153-14.184 75.672-17.957c10.518-3.774 14.167-3.91 23.118-.63 8.952 3.278 62.474 12.933 71.32 16.174l-.003 16.952c.002 1.697-2.04 3.562-6.66 5.97z"/><path fill="#d82c20" d="M334.77 265.22c-9.078 4.732-56.106 24.07-66.118 29.29-10.012 5.218-15.574 5.167-23.483 1.387s-57.956-23.997-66.97-28.305-9.205-7.275-.35-10.743c8.856-3.47 58.627-22.995 69.147-26.77 10.518-3.773 14.167-3.91 23.118-.63 8.952 3.28 55.7 21.886 64.545 25.127 8.848 3.24 9.188 5.912.11 10.643z"/><path fill="#FFF" d="M278.67 248.66l-14.74 1.53-3.3 7.94-5.33-8.86-17.02-1.53 12.7-4.58-3.81-7.03 11.89 4.65 11.21-3.67-3.03 7.27M259.75 287.18l-27.51-11.41 39.42-6.05"/><ellipse cx="221.61" rx="21.069" ry="8.167" cy="261.24" fill="#FFF"/><path fill="#7a0c00" d="M296.09 250.83l23.33 9.22-23.31 9.21"/><path fill="#ad2115" d="M270.28 261.04l25.81-10.21.02 18.43-2.53.99"/></g></svg>